<?xml version="1.0" standalone="no"?>
<!DOCTYPE svg PUBLIC "-//W3C//DTD SVG 20010904//EN"
 "http://www.w3.org/TR/2001/REC-SVG-20010904/DTD/svg10.dtd">
<svg version="1.0" xmlns="http://www.w3.org/2000/svg"
 width="1344.000000pt" height="1344.000000pt" viewBox="0 0 1344.000000 1344.000000"
 preserveAspectRatio="xMidYMid meet">
<metadata>
Created by potrace 1.11, written by Peter Selinger 2001-2013
</metadata>
<g transform="translate(0.000000,1344.000000) scale(0.100000,-0.100000)"
fill="#000000" stroke="none">
<path d="M10910 9979 c-58 -5 -808 -7 -1667 -6 -858 1 -1559 -1 -1557 -5 3 -5
19 -8 36 -8 21 0 29 -4 25 -13 -3 -8 1 -14 9 -14 7 0 10 5 7 11 -4 6 0 5 9 -2
13 -10 17 -10 21 0 4 10 6 10 6 0 1 -8 -7 -16 -17 -18 -17 -5 -42 -47 -42 -71
0 -16 5 -16 32 -2 17 9 19 8 16 -8 -3 -14 -13 -18 -46 -18 -23 0 -42 -4 -42
-8 0 -48 0 -48 28 -45 21 2 28 -2 30 -19 2 -16 -3 -22 -19 -25 -27 -4 -51 -38
-31 -45 6 -3 12 -11 12 -18 0 -7 -6 -15 -12 -18 -8 -2 -9 -8 -4 -13 5 -5 11
-4 13 4 3 6 9 12 14 12 16 0 9 -25 -11 -40 -11 -8 -20 -23 -20 -33 0 -10 -6
-25 -14 -32 -12 -12 -16 -11 -31 5 -10 11 -22 17 -27 14 -5 -3 1 -17 13 -30
20 -22 21 -24 4 -30 -10 -4 -30 0 -46 10 -33 20 -49 15 -42 -13 3 -13 -4 -24
-26 -37 l-30 -18 21 -18 c18 -15 18 -18 5 -18 -11 0 -17 -8 -17 -25 0 -22 -9
-30 -25 -22 -2 1 -11 -7 -19 -19 -12 -17 -13 -28 -4 -56 9 -29 14 -34 34 -30
30 6 32 -14 2 -24 -13 -3 -31 -13 -40 -22 -14 -12 -18 -12 -18 -2 0 11 -3 11
-12 2 -9 -9 -9 -15 -1 -23 8 -8 13 -8 17 0 12 19 48 13 44 -6 -3 -14 -14 -18
-51 -18 -46 0 -73 -17 -61 -37 3 -4 0 -8 -5 -8 -6 0 -11 -13 -11 -28 0 -16 -9
-39 -20 -52 -11 -12 -17 -27 -14 -31 9 -14 13 -11 26 21 10 23 16 27 28 20 13
-8 12 -10 -2 -10 -20 0 -23 -17 -8 -55 7 -19 7 -25 -3 -24 -23 3 -37 -1 -37
-11 0 -5 7 -10 15 -10 8 0 15 -5 15 -11 0 -6 -6 -9 -13 -6 -10 4 -14 -6 -14
-39 0 -27 5 -45 14 -48 26 -11 14 -36 -18 -36 -17 0 -28 -4 -24 -10 3 -5 15
-10 26 -10 10 0 19 -2 19 -4 0 -14 -24 -66 -30 -66 -5 0 -11 -14 -15 -31 -5
-23 -3 -34 12 -44 25 -20 31 -18 39 7 l6 21 19 -24 c24 -31 24 -39 0 -39 -11
0 -23 -5 -26 -11 -5 -7 -12 -6 -23 4 -22 19 -60 28 -68 15 -4 -5 -13 -3 -23 6
-16 15 -18 13 -31 -18 -11 -30 -16 -33 -31 -23 -10 6 -21 8 -25 4 -11 -10 17
-39 33 -33 7 3 13 1 13 -4 0 -5 19 -11 43 -13 26 -2 17 -4 -24 -4 -73 0 -89
-5 -89 -34 0 -24 -39 -40 -98 -41 -39 -1 -43 -3 -38 -22 8 -34 -19 -101 -43
-104 -12 -2 -21 -10 -21 -18 0 -8 -11 -26 -25 -40 -17 -17 -24 -32 -20 -45 4
-11 2 -19 -4 -19 -6 0 -11 9 -11 20 0 26 -10 25 -43 -5 -19 -19 -27 -22 -27
-11 0 13 -4 13 -29 -2 -28 -16 -31 -15 -50 2 -26 23 -46 16 -49 -18 -1 -20 3
-26 19 -26 16 0 20 5 16 20 -3 11 -1 20 5 20 5 0 8 -10 6 -22 -2 -17 -10 -23
-27 -23 -38 0 -65 62 -65 149 -1 39 -5 72 -10 73 -5 1 -12 7 -16 13 -5 8 -18
10 -34 6 -24 -6 -26 -10 -26 -66 0 -32 -4 -62 -10 -65 -5 -3 -10 -24 -10 -46
0 -21 -5 -39 -10 -39 -6 0 -10 -6 -9 -12 1 -7 -3 -34 -10 -60 -10 -35 -18 -48
-35 -50 -13 -2 -22 -11 -24 -26 -5 -32 -57 -82 -85 -82 -13 0 -42 14 -63 31
-36 29 -39 30 -42 11 -3 -17 -14 -21 -85 -28 -45 -4 -86 -7 -91 -5 -22 5 -54
-10 -59 -29 -6 -23 12 -26 45 -9 15 8 19 8 13 -1 -4 -7 2 -14 16 -18 20 -6 15
-8 -21 -12 -71 -8 -79 -4 -73 41 5 31 2 39 -10 39 -8 0 -22 3 -31 6 -12 4 -16
0 -16 -16 0 -16 4 -20 15 -16 24 9 18 -32 -6 -45 -17 -8 -23 -8 -29 1 -5 9
-19 11 -41 6 -21 -3 -29 -3 -20 3 7 5 9 11 5 13 -5 3 -3 3 5 1 7 -2 20 2 27 8
7 6 18 8 24 4 5 -3 10 -1 10 4 0 6 -8 12 -17 12 -72 6 -75 5 -84 -18 -5 -13
-13 -23 -18 -23 -9 0 -31 40 -45 82 -4 14 -12 16 -36 12 -26 -6 -30 -4 -30 16
0 18 -4 21 -24 16 -15 -4 -28 0 -36 9 -16 19 -30 19 -30 0 0 -8 -7 -15 -15
-15 -19 0 -19 5 1 34 8 13 26 27 40 30 14 4 22 11 18 17 -4 6 0 15 7 20 15 9
9 12 -43 23 -15 3 -33 13 -42 21 -16 16 -46 20 -46 6 0 -5 14 -11 30 -14 17
-4 30 -11 30 -17 0 -6 -5 -8 -12 -4 -6 4 -27 9 -47 11 -43 5 -47 8 -31 28 9
11 10 19 3 26 -7 7 -14 5 -23 -6 -18 -22 -33 -18 -27 8 9 34 -5 50 -34 38 -24
-10 -24 -10 5 -10 24 -1 26 -3 16 -16 -6 -8 -9 -19 -5 -24 3 -6 1 -19 -4 -28
-9 -16 -10 -16 -11 4 0 16 -8 25 -25 29 -18 4 -23 10 -16 18 13 15 -22 38 -44
30 -8 -3 -15 -1 -15 5 0 15 -60 71 -75 71 -18 0 -15 -40 3 -41 9 -1 2 -5 -17
-9 -35 -8 -87 11 -105 39 -6 10 -10 11 -16 1 -6 -9 -15 -8 -38 4 -17 9 -39 16
-50 16 -10 0 -27 6 -38 14 -16 13 -17 18 -6 36 7 11 10 25 7 30 -3 5 -1 11 5
15 7 4 5 14 -5 28 -22 32 -19 51 4 28 43 -43 64 -51 105 -40 21 6 56 7 79 3
49 -9 87 -6 104 8 7 6 18 5 31 -3 16 -10 23 -10 36 0 9 8 16 16 16 20 0 3 -33
6 -74 7 -41 0 -73 -3 -71 -6 2 -3 -5 -7 -16 -7 -11 -1 -17 3 -13 9 4 6 -1 8
-14 4 -29 -10 -74 4 -68 19 3 9 -8 16 -35 20 -39 7 -57 20 -44 33 3 3 10 1 14
-7 6 -10 17 -10 50 -1 48 13 53 34 13 48 -16 5 -36 17 -45 27 -19 19 -23 45
-6 45 21 0 59 51 59 78 0 27 0 26 -18 -7 -9 -19 -23 -37 -31 -39 -8 -3 -11 0
-7 7 5 7 1 9 -8 5 -9 -3 -16 -2 -16 4 0 12 25 33 32 26 3 -2 8 7 10 21 l5 25
-43 -25 c-23 -14 -47 -25 -53 -25 -14 0 -61 -41 -61 -53 0 -5 7 -4 15 3 13 10
15 9 15 -9 0 -11 -4 -21 -10 -21 -5 0 -10 -16 -10 -35 0 -19 -4 -35 -10 -35
-17 0 -11 -21 13 -40 12 -10 19 -22 15 -26 -4 -4 -14 -1 -22 5 -8 7 -25 10
-38 7 -13 -3 -17 -3 -10 0 17 8 15 24 -3 24 -8 0 -14 3 -14 8 4 21 -3 31 -23
34 -14 2 -23 10 -22 19 1 9 -12 24 -28 35 -25 16 -28 24 -23 50 5 30 -13 61
-29 49 -3 -3 -2 1 4 7 22 26 1 103 -32 113 -10 4 -19 22 -23 45 -4 25 -12 40
-21 40 -8 0 -14 5 -14 10 0 6 -11 10 -24 10 -23 0 -44 30 -38 53 1 4 -5 10
-13 13 -8 4 -15 17 -15 29 0 14 -7 26 -18 29 -21 7 -92 74 -92 87 0 14 28 11
34 -3 3 -7 4 0 1 15 -3 16 -1 35 6 43 8 10 8 14 0 14 -6 0 -11 -4 -11 -10 0
-18 -39 -10 -50 10 -7 14 -7 20 0 20 5 0 10 17 10 39 0 33 -4 40 -27 49 -16 6
-37 12 -48 14 -16 3 -19 10 -17 36 3 30 -12 45 -20 21 -2 -7 -10 -10 -17 -8
-9 3 -4 13 14 31 28 28 26 47 -3 49 -14 0 -13 2 3 8 20 8 20 8 -2 15 -25 8
-40 55 -21 67 12 8 4 13 -15 10 -5 -1 -6 3 -2 9 5 8 11 8 20 0 18 -15 63 6 47
22 -16 16 -46 17 -71 1 -13 -8 -41 -16 -62 -17 -43 -2 -66 -16 -27 -16 16 0
27 -7 30 -18 4 -14 -3 -18 -46 -20 -52 -3 -76 -14 -57 -26 6 -4 11 -28 11 -52
0 -39 -7 -55 -46 -105 l-45 -59 -350 0 -349 0 -10 26 c-11 28 -14 153 -4 178
5 14 36 16 238 17 127 0 222 4 211 8 -11 5 -114 9 -230 10 -115 1 -211 4 -214
7 -18 18 50 23 344 25 182 1 339 5 350 9 11 5 -52 9 -140 9 -88 1 -252 3 -365
5 -222 5 -706 -7 -970 -23 -91 -6 -289 -17 -440 -26 -348 -20 -380 -23 -380
-40 0 -14 21 -25 51 -25 18 0 19 -8 19 -110 l0 -110 -40 0 c-22 0 -48 -4 -58
-9 -9 -6 -28 -12 -42 -15 -15 -3 -53 -37 -95 -87 -38 -45 -84 -98 -102 -118
-18 -20 -35 -49 -39 -65 -3 -15 -19 -42 -35 -59 -16 -16 -30 -35 -30 -41 -1
-6 -3 -20 -5 -31 -2 -11 -6 -54 -10 -95 -7 -80 -1 -94 41 -102 17 -3 21 -14
27 -86 8 -99 -2 -244 -18 -249 -12 -4 -15 -2 -81 61 l-41 38 -45 -31 c-27 -18
-52 -28 -61 -25 -12 5 -16 0 -16 -17 0 -16 -10 -30 -31 -41 -35 -20 -53 -23
-44 -7 11 16 -47 60 -70 53 -23 -7 -47 -33 -40 -45 3 -4 -8 -1 -25 7 -16 9
-39 13 -50 9 -14 -4 -20 -2 -20 8 0 20 -90 43 -101 26 -6 -10 -16 -10 -45 -1
-34 10 -40 9 -65 -13 -16 -13 -42 -26 -59 -30 -16 -4 -30 -13 -30 -21 0 -8 -7
-17 -16 -21 -8 -3 -13 -12 -10 -19 5 -14 -48 -34 -94 -34 -14 -1 -36 -7 -50
-15 -14 -8 -40 -14 -57 -15 -27 0 -33 -4 -33 -21 0 -11 4 -18 9 -15 13 8 20
-43 7 -52 -6 -4 -80 -9 -163 -10 l-153 -4 0 -1708 c0 -1357 3 -1709 13 -1713
9 -4 9 -6 0 -6 -10 -1 -13 -475 -13 -2336 l0 -2335 6720 0 6720 0 0 4565 c0
4053 -2 4564 -15 4559 -8 -4 -15 -12 -15 -19 0 -29 -24 -33 -120 -20 -441 61
-622 76 -1009 84 l-334 6 -22 65 c-113 324 -141 383 -214 462 -93 101 -135
114 -313 97 -98 -9 -132 -9 -140 -1 -7 7 -20 12 -30 12 -12 0 -21 13 -29 43
-14 52 -31 85 -59 115 -23 25 -43 26 -230 11z m-3103 -96 c-3 -10 -5 -4 -5 12
0 17 2 24 5 18 2 -7 2 -21 0 -30z m-7 -127 c0 -3 -4 -8 -10 -11 -5 -3 -10 -1
-10 4 0 6 5 11 10 11 6 0 10 -2 10 -4z m-32 -80 c-7 -8 -15 -12 -17 -11 -5 6
10 25 20 25 5 0 4 -6 -3 -14z m-4498 -95 c0 -7 -30 -11 -77 -11 -43 0 -138 -3
-210 -7 -91 -4 -133 -2 -133 5 0 16 22 18 228 21 129 1 192 -1 192 -8z m910
-40 c0 -9 -22 -31 -31 -31 -4 0 -9 10 -11 23 -4 20 -1 23 19 19 13 -2 23 -7
23 -11z m-905 -107 l0 -99 -79 -3 c-44 -2 -83 1 -89 7 -5 5 -11 47 -14 93 -7
100 -2 106 82 110 101 5 100 6 100 -108z m-211 91 c3 -9 6 -57 6 -106 l0 -89
-109 0 c-90 0 -110 3 -115 16 -7 20 -8 179 -1 186 3 3 52 6 109 7 87 2 104 -1
110 -14z m-792 -110 l3 -100 -117 -3 -116 -3 -7 84 c-11 129 -18 121 110 127
61 3 113 3 117 0 3 -3 8 -50 10 -105z m530 103 c9 -27 9 -176 0 -182 -5 -3
-78 -8 -163 -11 -85 -3 -191 -8 -236 -10 -45 -3 -84 -1 -87 3 -8 13 -16 165
-9 190 l5 22 243 0 c185 0 244 -3 247 -12z m-809 -5 c3 -5 7 -53 8 -108 l4
-100 -80 -7 c-44 -3 -83 -3 -87 0 -4 4 -10 49 -14 99 -9 119 -5 123 92 123 40
0 75 -3 77 -7z m2327 -123 c0 -5 -2 -10 -4 -10 -3 0 -8 5 -11 10 -3 6 -1 10 4
10 6 0 11 -4 11 -10z m-356 -129 c10 -16 -43 -70 -93 -95 -41 -21 -69 -25
-271 -35 -294 -15 -763 -31 -912 -31 -86 0 -120 3 -123 13 -9 22 32 111 56
124 17 9 112 13 344 14 176 1 372 4 435 8 206 11 558 13 564 2z m-2241 -31
c19 0 23 -29 8 -58 -5 -9 -15 -30 -22 -46 -16 -33 -44 -46 -104 -46 -52 0 -98
-33 -116 -85 -19 -50 -58 -62 -45 -13 5 22 169 220 204 246 9 7 26 11 37 8 11
-3 28 -6 38 -6z m837 -7 c0 -10 -13 -40 -28 -68 l-27 -50 -198 -9 c-136 -6
-202 -5 -209 2 -7 7 -6 28 4 69 l14 58 119 5 c66 4 166 7 223 8 91 2 102 0
102 -15z m-706 -2 c7 -10 -90 -131 -105 -131 -12 0 -12 1 7 57 9 26 23 56 32
66 16 18 57 23 66 8z m226 -3 c0 -16 -31 -100 -43 -115 -10 -13 -227 -19 -227
-7 0 8 80 105 100 121 21 17 170 17 170 1z m5295 -447 c3 -5 1 -12 -5 -16 -5
-3 -10 1 -10 9 0 18 6 21 15 7z m-25 -121 c0 -5 -7 -10 -15 -10 -8 0 -15 5
-15 10 0 6 7 10 15 10 8 0 15 -4 15 -10z m-90 -80 c0 -5 -4 -10 -10 -10 -5 0
-10 5 -10 10 0 6 5 10 10 10 6 0 10 -4 10 -10z m-2373 -72 c-3 -8 -6 -5 -6 6
-1 11 2 17 5 13 3 -3 4 -12 1 -19z m163 -9 c0 -6 -4 -7 -10 -4 -5 3 -10 11
-10 16 0 6 5 7 10 4 6 -3 10 -11 10 -16z m1530 -141 c0 -18 -2 -20 -9 -8 -6 8
-7 18 -5 22 9 14 14 9 14 -14z m-5752 -24 c-3 -14 -5 -12 -10 9 -3 19 -2 25 4
19 6 -6 8 -18 6 -28z m-347 -154 c18 0 8 -17 -16 -28 -23 -11 -25 -10 -25 14
0 20 4 25 16 20 9 -3 20 -6 25 -6z m-69 -25 c-4 -21 -10 -25 -38 -25 -19 0
-34 3 -34 8 0 16 16 30 40 35 14 2 28 5 31 6 3 0 4 -10 1 -24z m6209 -22 c-8
-15 -10 -15 -11 -2 0 17 10 32 18 25 2 -3 -1 -13 -7 -23z m-1161 -22 c0 -10
-7 -22 -15 -25 -20 -7 -32 23 -14 35 21 13 29 11 29 -10z m120 -7 c0 -8 -4
-12 -10 -9 -5 3 -10 10 -10 16 0 5 5 9 10 9 6 0 10 -7 10 -16z m133 -261 c-7
-2 -19 -2 -25 0 -7 3 -2 5 12 5 14 0 19 -2 13 -5z m4431 -452 c3 -5 15 -7 26
-4 16 4 19 2 14 -13 -4 -11 -14 -27 -22 -36 -13 -15 -12 -19 2 -33 9 -9 16
-21 16 -28 0 -6 14 4 31 21 32 33 47 34 48 4 0 -9 8 -53 16 -97 9 -44 20 -111
24 -150 5 -38 13 -95 19 -125 6 -30 16 -93 22 -140 7 -47 16 -101 20 -120 5
-19 11 -60 14 -90 8 -82 35 -272 42 -300 13 -51 16 -110 5 -110 -6 0 -11 5
-11 10 0 6 -4 10 -10 10 -5 0 -10 -11 -10 -25 0 -16 6 -25 15 -25 19 0 19 -19
0 -26 -13 -5 -12 -11 5 -39 22 -36 18 -45 -21 -45 -37 0 -40 7 -23 55 9 24 12
55 8 79 -7 44 -56 115 -96 139 -20 12 -28 25 -29 47 -2 34 -2 42 -13 125 -4
33 -14 83 -22 111 -10 35 -12 59 -5 76 6 15 5 31 -1 43 -8 14 -7 21 6 30 17
13 23 30 7 20 -18 -11 -23 16 -7 40 21 32 22 105 1 105 -17 0 -20 -17 -5 -22
7 -2 7 -14 -1 -36 -16 -47 -24 -31 -25 51 0 40 -9 102 -19 139 -19 69 -16 90
9 69 8 -7 17 -8 20 -3 3 6 -1 15 -9 22 -8 7 -15 21 -15 32 0 10 -7 21 -15 24
-10 4 -13 14 -8 32 4 16 2 23 -5 18 -6 -3 -13 -2 -17 4 -3 6 1 13 9 16 19 7
21 33 3 40 -8 3 -14 10 -15 17 -6 47 -16 83 -26 89 -6 4 1 8 16 8 15 0 29 -4
32 -9z m-149 -131 c11 -149 11 -153 -2 -157 -9 -3 -13 10 -13 49 0 29 -3 91
-6 138 -5 59 -3 82 4 75 6 -5 13 -53 17 -105z m431 63 c4 -16 20 -55 36 -88
15 -33 28 -68 28 -77 0 -17 -2 -17 -34 0 -29 15 -35 23 -39 62 -3 25 -9 64
-13 88 -8 48 11 60 22 15z m35 -288 c-3 -26 -5 -27 -12 -10 -4 11 -8 40 -8 65
l0 45 12 -35 c7 -19 11 -48 8 -65z m49 65 c0 -5 -4 -10 -10 -10 -5 0 -10 5
-10 10 0 6 5 10 10 10 6 0 10 -4 10 -10z m-40 -126 c0 -8 -5 -12 -10 -9 -6 4
-8 11 -5 16 9 14 15 11 15 -7z m26 -103 c2 -28 17 -105 36 -188 10 -48 12 -51
25 -34 7 11 10 27 7 35 -5 12 -2 15 9 10 21 -8 20 -81 0 -93 -12 -6 -14 -20
-10 -57 11 -92 29 -209 33 -216 3 -5 23 -8 45 -8 28 0 39 -4 39 -15 0 -8 -7
-15 -15 -15 -8 0 -15 5 -15 10 0 6 -7 10 -15 10 -29 0 -18 -56 18 -86 l32 -27
3 22 c4 23 31 61 43 61 4 0 9 -9 12 -20 3 -11 11 -20 18 -20 10 0 10 3 1 12
-7 7 -12 22 -12 35 0 16 -4 21 -15 17 -8 -4 -15 -1 -15 5 0 6 6 11 13 11 9 0
9 2 0 8 -7 4 -9 13 -4 21 13 20 30 4 23 -21 -4 -17 -2 -20 11 -15 11 4 14 2
10 -9 -3 -7 0 -14 6 -14 6 0 11 -7 11 -15 0 -8 6 -15 13 -16 8 0 8 -2 -2 -6
-9 -4 -10 -7 -2 -13 9 -5 9 -14 1 -35 -7 -20 -7 -31 1 -41 6 -7 7 -19 3 -25
-4 -8 -3 -9 4 -5 8 5 12 -1 12 -14 0 -17 4 -20 20 -15 15 5 18 3 14 -9 -3 -9
-2 -16 4 -16 9 0 36 -86 37 -117 0 -6 4 -15 8 -19 9 -10 9 -64 0 -64 -5 0 -18
-3 -30 -6 -19 -5 -23 -2 -23 17 0 12 -3 19 -6 16 -12 -12 -43 40 -48 78 -6 50
-17 59 -49 44 -23 -10 -30 -9 -45 4 -24 22 -30 21 -28 0 1 -14 -6 -17 -29 -15
-16 1 -35 4 -41 7 -11 3 -39 187 -33 210 1 6 -2 21 -8 35 -11 25 -23 96 -49
275 -7 55 -23 161 -34 235 -11 74 -20 142 -20 150 0 24 33 -30 36 -59z m193
-277 c12 -33 21 -73 21 -88 0 -15 7 -34 15 -42 22 -22 18 -35 -6 -26 -18 7
-50 69 -47 91 4 36 -4 81 -14 81 -9 0 -14 18 -15 53 -2 51 -2 51 12 22 7 -17
23 -57 34 -91z m821 -58 c0 -8 -7 -16 -15 -20 -15 -5 -21 14 -8 27 11 12 23 8
23 -7z m-779 -159 c-8 -8 -11 -3 -11 19 1 25 2 27 11 11 8 -14 8 -22 0 -30z
m99 -203 c0 -8 -4 -14 -10 -14 -5 0 -10 9 -10 21 0 11 5 17 10 14 6 -3 10 -13
10 -21z m-536 -10 c9 -25 7 -72 -4 -79 -6 -4 -10 6 -10 22 0 15 -3 38 -6 51
-7 25 11 31 20 6z m261 -173 c7 -12 -12 -24 -25 -16 -11 7 -4 25 10 25 5 0 11
-4 15 -9z m-347 -148 c8 -13 4 -20 -15 -30 -29 -15 -43 -10 -43 17 0 31 43 40
58 13z m1522 -748 c14 -8 19 -14 10 -14 -8 0 -24 6 -34 14 -25 19 -9 19 24 0z
m70 -39 c0 -2 -9 -2 -20 1 -11 3 -20 9 -20 15 0 5 9 4 20 -2 11 -6 20 -12 20
-14z m-10837 -343 c-13 -2 -35 -2 -50 0 -16 2 -5 4 22 4 28 0 40 -2 28 -4z
m11265 -594 c1 -9 -8 -20 -22 -27 -22 -10 -27 -9 -35 7 -7 12 -6 22 2 30 16
16 51 10 55 -10z m-18 -96 c0 -10 7 -14 20 -10 17 4 20 0 20 -24 0 -24 -4 -29
-25 -30 -14 -1 -31 -2 -37 -3 -21 -2 -21 34 -1 49 10 9 13 14 6 15 -7 0 -13 7
-13 15 0 9 6 12 15 9 8 -4 15 -13 15 -21z m38 -170 c-2 -22 -9 -29 -32 -31
-23 -3 -28 0 -23 12 4 9 2 16 -3 16 -17 0 -11 18 8 23 44 12 53 8 50 -20z m12
-853 c14 -5 46 -13 71 -19 51 -12 102 -35 93 -43 -3 -3 -22 -2 -42 3 -20 5
-65 9 -99 9 -52 0 -63 3 -68 19 -3 11 -16 21 -27 23 -12 2 -23 8 -25 15 -5 13
49 9 97 -7z m-8552 -711 c2 -5 7 -9 12 -9 4 0 39 -20 77 -45 37 -25 72 -46 77
-48 5 -2 6 -8 2 -15 -7 -12 -152 72 -196 116 l-25 24 25 -7 c14 -4 27 -12 28
-16z m1602 -1005 c0 -8 -5 -12 -10 -9 -6 4 -8 11 -5 16 9 14 15 11 15 -7z"/>
<path d="M10217 6713 c-2 -5 2 -21 9 -38 l13 -30 1 38 c0 33 -12 49 -23 30z"/>
<path d="M10718 6250 c-6 -19 2 -50 13 -50 11 0 11 17 0 45 -6 15 -9 16 -13 5z"/>
<path d="M10645 6159 c-10 -15 3 -25 16 -12 7 7 7 13 1 17 -6 3 -14 1 -17 -5z"/>
<path d="M10660 6106 c0 -8 5 -18 10 -21 6 -3 10 3 10 14 0 12 -4 21 -10 21
-5 0 -10 -6 -10 -14z"/>
<path d="M4078 9613 c12 -2 30 -2 40 0 9 3 -1 5 -23 4 -22 0 -30 -2 -17 -4z"/>
<path d="M4450 9350 c0 -5 5 -10 10 -10 6 0 10 5 10 10 0 6 -4 10 -10 10 -5 0
-10 -4 -10 -10z"/>
<path d="M7270 8651 c0 -6 4 -13 10 -16 6 -3 7 1 4 9 -7 18 -14 21 -14 7z"/>
<path d="M5120 8519 c0 -5 5 -7 10 -4 6 3 10 8 10 11 0 2 -4 4 -10 4 -5 0 -10
-5 -10 -11z"/>
<path d="M6680 8260 c0 -5 5 -10 10 -10 6 0 10 5 10 10 0 6 -4 10 -10 10 -5 0
-10 -4 -10 -10z"/>
<path d="M5565 8251 c-3 -5 4 -16 16 -24 15 -11 17 -16 7 -20 -7 -3 -8 -6 -2
-6 5 -1 19 6 30 14 16 12 17 14 3 15 -9 0 -19 7 -23 15 -6 17 -22 20 -31 6z"/>
<path d="M5600 8170 c0 -5 5 -10 10 -10 6 0 10 5 10 10 0 6 -4 10 -10 10 -5 0
-10 -4 -10 -10z"/>
<path d="M5728 8103 c7 -3 16 -2 19 1 4 3 -2 6 -13 5 -11 0 -14 -3 -6 -6z"/>
<path d="M6275 8059 c-4 -6 -5 -13 -2 -16 7 -7 27 6 27 18 0 12 -17 12 -25 -2z"/>
<path d="M6185 8000 c-3 -5 3 -10 15 -10 12 0 18 5 15 10 -3 6 -10 10 -15 10
-5 0 -12 -4 -15 -10z"/>
<path d="M6345 8000 c3 -5 8 -10 11 -10 2 0 4 5 4 10 0 6 -5 10 -11 10 -5 0
-7 -4 -4 -10z"/>
<path d="M5840 7984 c0 -9 11 -14 31 -14 35 0 31 15 -6 22 -17 4 -25 1 -25 -8z"/>
<path d="M6316 7987 c3 -10 9 -15 12 -12 3 3 0 11 -7 18 -10 9 -11 8 -5 -6z"/>
</g>
</svg>
